<svg xmlns="http://www.w3.org/2000/svg" viewBox="0 0 24 24" width="100%" height="100%">
  <path fill="#232F3E" d="M12.4 10.3c0-1.4-.8-2.1-2.4-2.1-1.2 0-2.3.6-2.8 1.2l.9 1.2c.4-.4 1.1-.8 1.8-.8.9 0 1.3.4 1.3 1.1v.3c-.4 0-1.1.1-1.8.2-1.7.2-2.9.9-2.9 2.4 0 1.3 1 2.1 2.3 2.1 1.1 0 1.9-.5 2.3-1.2h.1v1h1.6v-5.4zm-1.6 3.5c0 .8-.6 1.3-1.4 1.3-.7 0-1.2-.4-1.2-1.1 0-.8.6-1.2 1.5-1.2h1.1v1zm6.4-3.5c0-1.4-.8-2.1-2.4-2.1-1.2 0-2.3.6-2.8 1.2l.9 1.2c.4-.4 1.1-.8 1.8-.8.9 0 1.3.4 1.3 1.1v.3c-.4 0-1.1.1-1.8.2-1.7.2-2.9.9-2.9 2.4 0 1.3 1 2.1 2.3 2.1 1.1 0 1.9-.5 2.3-1.2h.1v1h1.6v-5.4zm-1.6 3.5c0 .8-.6 1.3-1.4 1.3-.7 0-1.2-.4-1.2-1.1 0-.8.6-1.2 1.5-1.2h1.1v1z"/>
  <path fill="#FF9900" d="M1.5 18.5c4.5 3.5 11.3 4.8 17.1 3.8 2.3-.4 4.4-1.3 6.1-2.6.4-.3.2-.8-.3-.6-5.1 2.1-11.7 1.9-16.8-.8-2.1-1.1-3.9-2.7-5.2-4.6-.3-.4-.8-.1-.9.2z"/>
</svg>