<svg xmlns="http://www.w3.org/2000/svg" viewBox="0 0 24 24" width="100%" height="100%">
  <path fill="#1DB954" d="M12 0C5.373 0 0 5.373 0 12s5.373 12 12 12 12-5.373 12-12S18.627 0 12 0zm5.497 17.305c-.215.353-.676.465-1.028.249-2.814-1.72-6.358-2.107-10.53-1.153-.402.092-.803-.16-.895-.562-.092-.402.16-.803.562-.895 4.57-1.044 8.478-.607 11.638 1.327.352.216.464.676.253 1.034zm1.47-3.262c-.271.44-.847.58-1.287.31-3.219-1.978-8.13-2.553-11.938-1.397-.494.15-1.017-.129-1.167-.623-.15-.494.129-1.017.623-1.167 4.357-1.322 9.776-.682 13.46 1.58.438.27.578.847.309 1.297zm.127-3.39c-3.859-2.292-10.237-2.505-13.953-1.377-.592.18-1.217-.154-1.397-.746-.18-.592.154-1.217.746-1.397 4.269-1.296 11.31-1.04 15.76 1.602.533.317.708 1.005.392 1.538-.317.533-1.005.708-1.538.392z"/>
</svg>